<svg width="25" height="25" viewBox="0 0 25 25" fill="none" xmlns="http://www.w3.org/2000/svg">
<path d="M15.9447 24.6799H15.7908C10.5358 24.6799 8.00298 22.5985 7.56506 17.9361C7.51772 17.4485 7.87279 17.0084 8.36988 16.9608C8.84331 16.9132 9.29306 17.282 9.3404 17.7696C9.68364 21.5043 11.4353 22.8958 15.8026 22.8958H15.9565C20.7736 22.8958 22.4779 21.1831 22.4779 16.3423V8.58756C22.4779 3.74678 20.7736 2.03407 15.9565 2.03407H15.8026C11.4116 2.03407 9.65996 3.44943 9.3404 7.25545C9.28122 7.7431 8.86698 8.11181 8.36988 8.06423C7.87279 8.02855 7.51772 7.58848 7.55323 7.10083C7.95564 2.3671 10.5003 0.25 15.7908 0.25H15.9447C21.756 0.25 24.2414 2.7477 24.2414 8.58756V16.3423C24.2414 22.1822 21.756 24.6799 15.9447 24.6799Z" fill="#010048"/>
<path d="M0.889546 11.5768L14.3584 11.5768C14.8437 11.5768 15.2461 11.9812 15.2461 12.4689C15.2461 12.9565 14.8437 13.3609 14.3584 13.3609L0.889545 13.3609C0.404285 13.3609 0.00187401 12.9565 0.00187405 12.4689C0.00187409 11.9812 0.404286 11.5768 0.889546 11.5768Z" fill="#010048"/>
<path d="M11.7168 7.5919C11.9416 7.5919 12.1665 7.67515 12.3441 7.85356L16.309 11.838C16.6522 12.1829 16.6522 12.7538 16.309 13.0987L12.3441 17.0832C12.0008 17.4281 11.4327 17.4281 11.0895 17.0832C10.7462 16.7382 10.7462 16.1673 11.0895 15.8224L14.4271 12.4684L11.0895 9.11431C10.7462 8.76938 10.7462 8.19848 11.0895 7.85356C11.2552 7.67515 11.4919 7.5919 11.7168 7.5919Z" fill="#010048"/>
</svg>
