<svg width="46" height="13" viewBox="0 0 46 13" fill="none" xmlns="http://www.w3.org/2000/svg">
<path fill-rule="evenodd" clip-rule="evenodd" d="M0 6.72776C0 3.48658 2.64772 0.838867 5.88889 0.838867C9.13006 0.838867 11.7778 3.48658 11.7778 6.72776C11.7778 9.96893 9.13006 12.6166 5.88889 12.6166C2.64772 12.6166 0 9.96893 0 6.72776ZM5.88889 2.83887C3.75228 2.83887 2 4.59115 2 6.72776C2 8.86436 3.75228 10.6166 5.88889 10.6166C8.02549 10.6166 9.77778 8.86436 9.77778 6.72776C9.77778 4.59115 8.02549 2.83887 5.88889 2.83887Z" fill="#565656"/>
<path fill-rule="evenodd" clip-rule="evenodd" d="M34.2188 6.72776C34.2188 3.48658 36.8665 0.838867 40.1076 0.838867C43.3488 0.838867 45.9965 3.48658 45.9965 6.72776C45.9965 9.96893 43.3488 12.6166 40.1076 12.6166C36.8665 12.6166 34.2188 9.96893 34.2188 6.72776ZM40.1076 2.83887C37.971 2.83887 36.2188 4.59115 36.2188 6.72776C36.2188 8.86436 37.971 10.6166 40.1076 10.6166C42.2442 10.6166 43.9965 8.86436 43.9965 6.72776C43.9965 4.59115 42.2442 2.83887 40.1076 2.83887Z" fill="#565656"/>
<path fill-rule="evenodd" clip-rule="evenodd" d="M17.1094 6.72776C17.1094 3.48658 19.7571 0.838867 22.9983 0.838867C26.2394 0.838867 28.8872 3.48658 28.8872 6.72776C28.8872 9.96893 26.2394 12.6166 22.9983 12.6166C19.7571 12.6166 17.1094 9.96893 17.1094 6.72776ZM22.9983 2.83887C20.8617 2.83887 19.1094 4.59115 19.1094 6.72776C19.1094 8.86436 20.8617 10.6166 22.9983 10.6166C25.1349 10.6166 26.8872 8.86436 26.8872 6.72776C26.8872 4.59115 25.1349 2.83887 22.9983 2.83887Z" fill="#565656"/>
</svg>
