<svg width="23" height="16" viewBox="0 0 23 16" fill="none" xmlns="http://www.w3.org/2000/svg">
<path d="M11.574 0H11.702C12.8837 0.00406369 18.8712 0.0447008 20.4857 0.453779C20.9737 0.578627 21.4184 0.821979 21.7754 1.15952C22.1324 1.49705 22.3891 1.91696 22.5198 2.37726C22.665 2.89199 22.7671 3.57334 22.8361 4.27636L22.8505 4.41723L22.8821 4.76942L22.8936 4.91029C22.9871 6.14836 22.9986 7.30787 23 7.56117V7.66276C22.9986 7.92555 22.9856 9.16362 22.8821 10.4532L22.8706 10.5954L22.8577 10.7363C22.7858 11.5111 22.6794 12.2805 22.5198 12.8467C22.3895 13.3072 22.1329 13.7273 21.7759 14.0649C21.4188 14.4025 20.9739 14.6457 20.4857 14.7702C18.8181 15.1928 12.4797 15.2226 11.6013 15.2239H11.3972C10.953 15.2239 9.11576 15.2158 7.18939 15.1535L6.945 15.1454L6.81993 15.14L6.5741 15.1305L6.32827 15.121C4.73255 15.0546 3.21301 14.9476 2.51291 14.7688C2.02483 14.6444 1.58 14.4014 1.22299 14.0641C0.865981 13.7267 0.609318 13.3069 0.478717 12.8467C0.319145 12.2818 0.212763 11.5111 0.140884 10.7363L0.129383 10.594L0.117882 10.4532C0.0469339 9.53531 0.00761903 8.61553 0 7.69527L0 7.52866C0.00287518 7.23743 0.0143759 6.23099 0.0920058 5.12025L0.102069 4.98073L0.106382 4.91029L0.117882 4.76942L0.149509 4.41723L0.163885 4.27636C0.23289 3.57334 0.334958 2.89064 0.480155 2.37726C0.610535 1.91677 0.8671 1.49667 1.22413 1.15908C1.58115 0.82148 2.0261 0.578253 2.51434 0.453779C3.21445 0.277686 4.73398 0.16932 6.32971 0.101592L6.5741 0.0921102L6.82136 0.0839831L6.945 0.0799194L7.19082 0.0704375C8.55899 0.0289534 9.92772 0.00592332 11.2966 0.00135463H11.574V0ZM9.20058 4.34815V10.8744L15.1766 7.61265L9.20058 4.34815Z" fill="#ECECEC"/>
</svg>
