<svg width="11" height="7" viewBox="0 0 11 7" fill="none" xmlns="http://www.w3.org/2000/svg">
<path d="M1.60226 1.0625H9.39576L5.49901 5.51581L1.60226 1.0625ZM0.990447 1.59794L4.8872 6.05044C4.96346 6.13771 5.05751 6.20765 5.16303 6.25558C5.26856 6.3035 5.38311 6.3283 5.49901 6.3283C5.61491 6.3283 5.72946 6.3035 5.83499 6.25558C5.94051 6.20765 6.03456 6.13771 6.11082 6.05044L10.0076 1.59794C10.4674 1.07225 10.0937 0.25 9.39576 0.25H1.60226C1.44606 0.249866 1.29313 0.294759 1.16179 0.379302C1.03045 0.463845 0.926265 0.584455 0.861707 0.726688C0.797149 0.868921 0.774958 1.02675 0.797791 1.18127C0.820623 1.33579 0.887512 1.48045 0.990447 1.59794Z" fill="#010048"/>
</svg>
