<svg width="22" height="24" viewBox="0 0 22 24" fill="none" xmlns="http://www.w3.org/2000/svg">
<path d="M10.7454 14.4403C8.41736 14.4403 6.51562 12.5402 6.51562 10.1897C6.51562 7.83936 8.41736 5.95024 10.7454 5.95024C13.0734 5.95024 14.9751 7.85035 14.9751 10.2007C14.9751 12.5511 13.0734 14.4403 10.7454 14.4403ZM10.7454 7.59773C9.32456 7.59773 8.15505 8.76196 8.15505 10.2007C8.15505 11.6395 9.31363 12.8038 10.7454 12.8038C12.1772 12.8038 13.3357 11.6395 13.3357 10.2007C13.3357 8.76196 12.1662 7.59773 10.7454 7.59773Z" fill="#050231"/>
<path d="M10.7482 23.875C9.13066 23.875 7.50215 23.2599 6.23433 22.0408C3.01012 18.9215 -0.552905 13.9461 0.791426 8.02615C2.0046 2.65533 6.67151 0.25 10.7482 0.25H10.7592C14.8359 0.25 19.5028 2.65533 20.716 8.03713C22.0494 13.9571 18.4863 18.9215 15.2621 22.0408C13.9943 23.2599 12.3658 23.875 10.7482 23.875ZM10.7482 1.89749C7.56773 1.89749 3.48009 3.5999 2.39807 8.3886C1.21768 13.5617 4.45282 18.0209 7.38193 20.8436C9.27275 22.6778 12.2346 22.6778 14.1255 20.8436C17.0436 18.0209 20.2788 13.5617 19.1202 8.3886C18.0273 3.5999 13.9287 1.89749 10.7482 1.89749Z" fill="#050231"/>
</svg>
