<svg width="41" height="56" viewBox="0 0 41 56" fill="none" xmlns="http://www.w3.org/2000/svg">
<path d="M2.439 1.495C3.17505 1.11597 4.0014 0.947357 4.82711 1.0077C5.65281 1.06804 6.44587 1.355 7.119 1.837L38.619 24.337C39.2023 24.7533 39.6778 25.3028 40.0059 25.94C40.334 26.5771 40.5051 27.2834 40.5051 28C40.5051 28.7166 40.334 29.4229 40.0059 30.06C39.6778 30.6972 39.2023 31.2467 38.619 31.663L7.119 54.163C6.4461 54.6446 5.65344 54.9313 4.82816 54.9917C4.00287 55.052 3.17693 54.8836 2.44113 54.505C1.70534 54.1264 1.08818 53.5523 0.657508 52.8457C0.226837 52.1391 -0.000668994 51.3275 2.46979e-06 50.5V5.5C-0.000864104 4.67274 0.226326 3.86125 0.656607 3.1547C1.08689 2.44815 1.70361 1.87388 2.439 1.495Z" fill="white"/>
</svg>
