<svg width="29" height="27" viewBox="0 0 29 27" fill="none" xmlns="http://www.w3.org/2000/svg">
<path fill-rule="evenodd" clip-rule="evenodd" d="M0.121094 14.4002C0.121094 13.9156 0.513922 13.5228 0.998501 13.5228H23.9485C24.4331 13.5228 24.8259 13.9156 24.8259 14.4002C24.8259 14.8848 24.4331 15.2776 23.9485 15.2776H0.998501C0.513922 15.2776 0.121094 14.8848 0.121094 14.4002Z" fill="#565656"/>
<path fill-rule="evenodd" clip-rule="evenodd" d="M5.09275 7.12247C3.55884 7.21399 2.88028 7.53385 2.51131 7.99938C2.10306 8.51446 1.87591 9.43828 1.87591 11.2546V20.6912C1.87591 22.7063 2.15381 23.6158 2.63741 24.093C3.12508 24.5742 4.05647 24.8492 6.10154 24.8492H18.8455C20.8561 24.8492 21.7902 24.5853 22.2842 24.1206C22.7625 23.6705 23.0505 22.816 23.0711 20.9023V11.2546C23.0711 9.23956 22.7932 8.33 22.3096 7.8528C21.8219 7.37158 20.8906 7.09655 18.8455 7.09655H6.10154C5.74615 7.09655 5.41338 7.10913 5.09275 7.12247ZM5.01197 5.3695C5.33697 5.35596 5.70379 5.34174 6.10154 5.34174H18.8455C20.8774 5.34174 22.4976 5.57296 23.5422 6.60372C24.5908 7.6385 24.8259 9.24666 24.8259 11.2546V20.9163C24.8056 22.847 24.5468 24.4012 23.4866 25.3987C22.4415 26.3819 20.8444 26.604 18.8455 26.604H6.10154C4.06961 26.604 2.44948 26.3728 1.40488 25.3421C0.356213 24.3073 0.121094 22.6992 0.121094 20.6912V11.2546C0.121094 9.42594 0.31919 7.94004 1.13607 6.90939C1.99162 5.82994 3.33645 5.46834 4.99676 5.37026L5.01197 5.3695Z" fill="#565656"/>
<path fill-rule="evenodd" clip-rule="evenodd" d="M5.95758 5.34221C6.00407 5.34184 6.05102 5.34163 6.09842 5.34163H18.8424C20.8743 5.34163 22.4944 5.57285 23.539 6.60363C24.5877 7.63841 24.8228 9.24659 24.8228 11.2545V19.9336C25.7282 19.7859 26.1977 19.5133 26.4826 19.1538C26.8908 18.6387 27.118 17.7149 27.118 15.8985V6.46204C27.118 4.44699 26.8401 3.53742 26.3565 3.0602C25.8688 2.57898 24.9374 2.30395 22.8924 2.30395H10.1484C8.13784 2.30395 7.20369 2.56783 6.70973 3.03253C6.31482 3.40405 6.04967 4.0512 5.95758 5.34221ZM5.50731 1.75442C6.55238 0.771251 8.14949 0.549133 10.1484 0.549133H22.8924C24.9243 0.549133 26.5444 0.780353 27.589 1.81113C28.6377 2.84591 28.8728 4.4541 28.8728 6.46204V15.8985C28.8728 17.7272 28.6747 19.2131 27.8578 20.2438C27.0023 21.3232 25.6574 21.6848 23.9971 21.7829C23.7558 21.7972 23.5194 21.7113 23.3435 21.5455C23.1677 21.3797 23.068 21.1487 23.068 20.907V11.2545C23.068 9.23948 22.7901 8.32991 22.3065 7.8527C21.8188 7.37148 20.8874 7.09645 18.8424 7.09645H6.09842C5.74017 7.09645 5.40491 7.10923 5.0819 7.12269C4.84147 7.1327 4.60747 7.04353 4.43468 6.87604C4.2619 6.70854 4.16548 6.47744 4.16802 6.2368C4.18834 4.30611 4.44706 2.75189 5.50731 1.75442Z" fill="#565656"/>
<path fill-rule="evenodd" clip-rule="evenodd" d="M4.51172 21.4202C4.51172 20.9356 4.90455 20.5428 5.38913 20.5428H7.71109C8.19566 20.5428 8.58849 20.9356 8.58849 21.4202C8.58849 21.9048 8.19566 22.2976 7.71109 22.2976H5.38913C4.90455 22.2976 4.51172 21.9048 4.51172 21.4202Z" fill="#565656"/>
<path fill-rule="evenodd" clip-rule="evenodd" d="M9.72266 21.4202C9.72266 20.9356 10.1155 20.5428 10.6001 20.5428H15.2441C15.7287 20.5428 16.1215 20.9356 16.1215 21.4202C16.1215 21.9048 15.7287 22.2976 15.2441 22.2976H10.6001C10.1155 22.2976 9.72266 21.9048 9.72266 21.4202Z" fill="#565656"/>
</svg>
