<svg width="21" height="26" viewBox="0 0 21 26" fill="none" xmlns="http://www.w3.org/2000/svg">
<path fill-rule="evenodd" clip-rule="evenodd" d="M9.16314 0.453712C9.94574 -0.151975 11.0346 -0.151237 11.8164 0.455928C12.9575 1.33755 15.2278 3.23163 17.2204 5.73914C19.199 8.22895 21.0061 11.4516 21 14.9693C20.9995 20.7528 16.2938 25.4566 10.5001 25.4566C4.70533 25.4566 0.0016156 20.7404 0.000141284 14.9594C-0.0183344 11.3961 1.77801 8.17336 3.75576 5.69249C5.74508 3.19709 8.01626 1.3292 9.16314 0.453712ZM21 14.9693C21 14.9696 21 14.9699 21 14.9702L20 14.9684H21C21 14.9687 21 14.969 21 14.9693ZM10.5898 2.03565C10.5287 1.98812 10.448 1.98812 10.3869 2.03565L10.3796 2.04128L10.3796 2.04125C9.29709 2.86737 7.16659 4.62239 5.31963 6.9392C3.45979 9.27216 1.98435 12.0533 2.00013 14.9512L2.00016 14.9567C2.00014 19.636 5.81059 23.4566 10.5001 23.4566C15.1911 23.4566 19 19.6461 19 14.9684L19 14.9665C19.0052 12.1162 17.5228 9.33427 15.6546 6.98344C13.8012 4.65107 11.6684 2.86882 10.5924 2.03767L10.5898 2.03565Z" fill="#565656"/>
</svg>
