<svg width="16" height="15" viewBox="0 0 16 15" fill="none" xmlns="http://www.w3.org/2000/svg">
<path fill-rule="evenodd" clip-rule="evenodd" d="M2.96508 2.5129C2.50095 2.97801 2.20312 3.73689 2.20312 4.93252V8.20962C2.20312 9.78388 2.52398 10.486 2.92866 10.8409C3.35762 11.217 4.08277 11.3921 5.37742 11.3921H5.70444C5.94087 11.3921 6.16087 11.4651 6.32671 11.5475C6.48997 11.6286 6.68558 11.761 6.83056 11.9582L7.80921 13.2658C7.90448 13.3931 7.97849 13.3977 7.99362 13.3977C8.00875 13.3977 8.08275 13.3931 8.17802 13.2658L9.16196 11.9511C9.42564 11.6034 9.84147 11.3921 10.2828 11.3921H10.6098C11.8019 11.3921 12.5583 11.0941 13.0221 10.6292C13.4863 10.1641 13.7841 9.40525 13.7841 8.20962V4.93252C13.7841 3.73689 13.4863 2.97801 13.0221 2.5129C12.5583 2.04809 11.8019 1.75 10.6098 1.75H5.37742C4.18533 1.75 3.42893 2.04809 2.96508 2.5129ZM1.90331 1.45336C2.74757 0.607333 3.95332 0.25 5.37742 0.25H10.6098C12.0339 0.25 13.2397 0.607333 14.0839 1.45336C14.9279 2.29909 15.2841 3.50647 15.2841 4.93252V8.20962C15.2841 9.63568 14.9279 10.8431 14.0839 11.6888C13.2397 12.5348 12.0339 12.8921 10.6098 12.8921H10.3312L9.37893 14.1646C9.04253 14.614 8.54751 14.8977 7.99362 14.8977C7.43972 14.8977 6.94471 14.614 6.60831 14.1646L5.656 12.8921H5.37742C4.05587 12.8921 2.81888 12.7396 1.93973 11.9687C1.03632 11.1766 0.703125 9.91247 0.703125 8.20962V4.93252C0.703125 3.50647 1.05935 2.29909 1.90331 1.45336Z" fill="#565656" fill-opacity="0.6"/>
<path fill-rule="evenodd" clip-rule="evenodd" d="M9.60938 6.89941C9.60938 6.34713 10.0571 5.89941 10.6094 5.89941H10.6162C11.1685 5.89941 11.6162 6.34713 11.6162 6.89941C11.6162 7.4517 11.1685 7.89941 10.6162 7.89941H10.6094C10.0571 7.89941 9.60938 7.4517 9.60938 6.89941Z" fill="#565656" fill-opacity="0.6"/>
<path fill-rule="evenodd" clip-rule="evenodd" d="M6.99219 6.89941C6.99219 6.34713 7.4399 5.89941 7.99219 5.89941H7.99909C8.55138 5.89941 8.99909 6.34713 8.99909 6.89941C8.99909 7.4517 8.55138 7.89941 7.99909 7.89941H7.99219C7.4399 7.89941 6.99219 7.4517 6.99219 6.89941Z" fill="#565656" fill-opacity="0.6"/>
<path fill-rule="evenodd" clip-rule="evenodd" d="M4.375 6.89941C4.375 6.34713 4.82272 5.89941 5.375 5.89941H5.38189C5.93417 5.89941 6.38189 6.34713 6.38189 6.89941C6.38189 7.4517 5.93417 7.89941 5.38189 7.89941H5.375C4.82272 7.89941 4.375 7.4517 4.375 6.89941Z" fill="#565656" fill-opacity="0.6"/>
</svg>
