<svg width="16" height="14" viewBox="0 0 16 14" fill="none" xmlns="http://www.w3.org/2000/svg">
<path fill-rule="evenodd" clip-rule="evenodd" d="M8.09964 5.1582C7.07821 5.1582 6.25391 5.98251 6.25391 7.00394C6.25391 8.02538 7.07822 8.84971 8.09964 8.84971C9.12108 8.84971 9.94541 8.02537 9.94541 7.00394C9.94541 5.98252 9.12109 5.1582 8.09964 5.1582ZM4.75391 7.00394C4.75391 5.15408 6.24978 3.6582 8.09964 3.6582C9.94949 3.6582 11.4454 5.15407 11.4454 7.00394C11.4454 8.8538 9.9495 10.3497 8.09964 10.3497C6.24977 10.3497 4.75391 8.85379 4.75391 7.00394Z" fill="#9A9A9A"/>
<path fill-rule="evenodd" clip-rule="evenodd" d="M0.856918 4.71539C2.61826 1.94675 5.21736 0.25 8.09487 0.25C10.9725 0.25 13.5718 1.94695 15.3331 4.71588C15.7544 5.37639 15.9397 6.21095 15.9397 7.00001C15.9397 7.78926 15.7543 8.62403 15.3328 9.28461C13.5715 12.0532 10.9724 13.75 8.09487 13.75C5.21719 13.75 2.61795 12.053 0.856607 9.28412C0.435352 8.62362 0.25 7.78906 0.25 7.00001C0.25 6.21076 0.435444 5.37598 0.856918 4.71539ZM8.09487 1.75C5.85349 1.75 3.68174 3.06936 2.12224 5.52096L2.12162 5.52194C1.89075 5.88365 1.75 6.41906 1.75 7.00001C1.75 7.58096 1.89075 8.11636 2.12162 8.47805L2.12224 8.47904C3.68174 10.9306 5.85349 12.25 8.09487 12.25C10.3362 12.25 12.508 10.9306 14.0675 8.47904L14.0681 8.47805C14.299 8.11636 14.4397 7.58096 14.4397 7.00001C14.4397 6.41906 14.299 5.88365 14.0681 5.52194L14.0675 5.52096C12.508 3.06936 10.3362 1.75 8.09487 1.75Z" fill="#9A9A9A"/>
</svg>
